<svg xmlns="http://www.w3.org/2000/svg" version="1.1" viewBox="-5.0 -10.0 110.0 135.0">
 <g>
  <path d="m37.383 40.75 11.512 11.512c0.29297 0.29297 0.69141 0.45703 1.1055 0.45703s0.8125-0.16406 1.1055-0.45703l11.512-11.512c0.078124-0.074219 0.14453-0.15625 0.20312-0.24609 2.1445-3.2656 2.1289-7.4492-0.046874-10.418-2.5039-3.418-6.5625-3.5156-7.0156-3.5156-2.6562 0-4.5859 1.1758-5.7539 2.1836-1.168-1.0078-3.1016-2.1836-5.7539-2.1836-0.45312 0-4.5117 0.097657-7.0156 3.5156-2.1719 2.9648-2.1914 7.1523-0.046875 10.418 0.058594 0.089844 0.125 0.17188 0.20312 0.24609zm2.3633-8.8164c1.6211-2.2109 4.3789-2.2383 4.4961-2.2383 2.75 0 4.332 2.0195 4.5 2.25 0.59375 0.78906 1.918 0.78906 2.5078 0 0.17188-0.23047 1.75-2.25 4.5-2.25 0.11719 0 2.875 0.027344 4.4961 2.2383 1.3789 1.8828 1.3867 4.5664 0.035156 6.7266l-10.289 10.289-10.289-10.289c-1.3516-2.1602-1.3438-4.8438 0.035156-6.7266z"/>
  <path d="m91.031 41.289c0-0.078124-0.050781-0.14062-0.0625-0.21484-0.011719-0.085938-0.003906-0.16797-0.027344-0.25-0.007812-0.019531 0.003906-0.042969-0.003906-0.0625-0.019531-0.054688-0.074219-0.078125-0.097656-0.12891-0.066406-0.13281-0.14844-0.23828-0.24609-0.35156-0.050781-0.058594-0.0625-0.14062-0.12109-0.19141l-12.594-10.484v-14.625c0-0.86328-0.69922-1.5625-1.5625-1.5625h-17.852l-5.3555-4.4727c-1.8047-1.5078-4.4141-1.5039-6.2148 0l-5.3555 4.4727h-17.852c-0.86328 0-1.5625 0.69922-1.5625 1.5625v14.625l-12.594 10.484c-0.0625 0.050781-0.070312 0.13281-0.12109 0.19141-0.10156 0.10938-0.18359 0.21484-0.24609 0.35156-0.023437 0.050782-0.078124 0.074219-0.097656 0.12891-0.007812 0.019531 0.003906 0.042969-0.003906 0.0625-0.027344 0.082031-0.015625 0.16406-0.027344 0.25-0.011718 0.074219-0.0625 0.13672-0.0625 0.21484v49.336c0 0.10547 0.0625 0.1875 0.085938 0.28906 0.015625 0.082032-0.019532 0.16406 0.011718 0.24219 0.019532 0.054688 0.074219 0.078125 0.097657 0.12891 0.074219 0.15625 0.18359 0.27734 0.30859 0.40234 0.097657 0.097656 0.17578 0.1875 0.29297 0.25781 0.042969 0.023438 0.0625 0.074219 0.10938 0.09375 0.21094 0.097657 0.4375 0.14844 0.66406 0.14844h78.938c0.22656 0 0.45312-0.046875 0.66406-0.14844 0.046875-0.019531 0.066407-0.070312 0.10938-0.09375 0.11719-0.066406 0.19531-0.16016 0.29297-0.25781 0.125-0.125 0.23047-0.24219 0.30859-0.40234 0.023437-0.050781 0.078125-0.074218 0.097656-0.12891 0.027344-0.082031-0.003906-0.16016 0.011719-0.24219 0.019531-0.10156 0.085937-0.18359 0.085937-0.28906v-49.336zm-68.906 7.6172-7.2734-6.0547h7.2734zm-10.031-4.2852 1.043 0.86719 24.555 20.465-23.871 19.895-1.7266 1.4375v-42.668zm7.1289 40.793 27.57-22.965c1.8516-1.5547 4.5508-1.5586 6.4219 0.003906l26.539 22.109 5.3984 4.5h-70.305l4.375-3.6445zm58.652-36.512v-6.0547h7.2734zm7.5664 36.328-23.133-19.277 24.555-20.465 1.043-0.86719v42.668l-2.4648-2.0547zm-0.28906-45.508h-7.2734v-6.0547zm-36.254-28.387c0.63281-0.53516 1.5703-0.53516 2.2031 0h0.003907l2.4805 2.0742h-7.1719zm-23.648 5.1992h49.5v34.973l-14.883 12.414-4.6523-3.8672c-3.0273-2.5391-7.4141-2.5273-10.426-0.003907l-4.6562 3.8711-14.883-12.414zm-3.125 17.133v6.0547h-7.2734z"/>
 </g>
</svg>